<svg width="75" height="75" viewBox="0 0 82 82" fill="none" xmlns="http://www.w3.org/2000/svg">
<path d="M20.5 34.1666V27.3333C20.5 16.0241 23.9167 6.83331 41 6.83331C58.0833 6.83331 61.5 16.0241 61.5 27.3333V34.1666" stroke="#FFFFFF" stroke-width="3" stroke-linecap="round" stroke-linejoin="round"/>
<path d="M41 63.2083C45.7175 63.2083 49.5417 59.3841 49.5417 54.6667C49.5417 49.9492 45.7175 46.125 41 46.125C36.2826 46.125 32.4584 49.9492 32.4584 54.6667C32.4584 59.3841 36.2826 63.2083 41 63.2083Z" stroke="#FFFFFF" stroke-width="3" stroke-linecap="round" stroke-linejoin="round"/>
<path d="M58.0834 75.1667H23.9167C10.25 75.1667 6.83337 71.75 6.83337 58.0834V51.25C6.83337 37.5834 10.25 34.1667 23.9167 34.1667H58.0834C71.75 34.1667 75.1667 37.5834 75.1667 51.25V58.0834C75.1667 71.75 71.75 75.1667 58.0834 75.1667Z" stroke="#FFFFFF" stroke-width="3" stroke-linecap="round" stroke-linejoin="round"/>
</svg>
